<svg width="17" height="17" viewBox="0 0 17 17" fill="none" xmlns="http://www.w3.org/2000/svg">
<g id="SVG">
<g id="Group">
<path id="Vector" d="M8.66104 0.204102C13.061 0.204102 16.561 3.7041 16.661 8.1041C16.761 12.6041 13.161 16.2041 8.76104 16.2041C4.26104 16.2041 0.761038 12.6041 0.661038 8.3041C0.561038 3.8041 4.26104 0.204102 8.66104 0.204102ZM1.46104 8.2041C1.46104 12.2041 4.66104 15.4041 8.66104 15.4041C12.661 15.4041 15.861 12.2041 15.861 8.2041C15.861 4.2041 12.561 1.0041 8.66104 1.0041C4.66104 1.0041 1.46104 4.2041 1.46104 8.2041Z" fill="white"/>
<path id="Vector_2" d="M11.8611 4.2041C11.8611 6.9041 11.8611 9.5041 11.8611 12.2041C9.76106 12.2041 7.56106 12.2041 5.46106 12.2041C5.46106 12.2041 5.46106 12.2041 5.46106 12.1041C5.46106 10.3041 5.46106 8.5041 5.46106 6.7041C5.46106 5.9041 5.46106 5.1041 5.46106 4.3041C5.46106 4.2041 5.46106 4.2041 5.56106 4.2041C6.86106 4.2041 8.26106 4.2041 9.66106 4.2041C10.3611 4.2041 11.0611 4.2041 11.8611 4.2041ZM10.2611 5.8041C9.16106 5.8041 8.16106 5.8041 7.06106 5.8041C7.06106 5.8041 7.06106 5.8041 7.06106 5.9041C7.06106 6.4041 7.06106 6.9041 7.06106 7.4041C7.06106 7.5041 7.06106 7.5041 7.16106 7.5041C8.16106 7.5041 9.16106 7.5041 10.2611 7.5041C10.2611 7.5041 10.3611 7.5041 10.3611 7.4041C10.2611 6.8041 10.2611 6.4041 10.2611 5.8041ZM7.06106 9.0041C8.16106 9.0041 9.16106 9.0041 10.1611 9.0041C10.2611 9.0041 10.2611 9.0041 10.2611 8.9041C10.2611 8.7041 10.2611 8.5041 10.2611 8.2041C10.2611 8.2041 10.2611 8.2041 10.2611 8.1041C9.16106 8.2041 8.16106 8.2041 7.06106 8.2041C7.06106 8.5041 7.06106 8.7041 7.06106 9.0041ZM9.46106 10.6041C9.46106 10.3041 9.46106 10.1041 9.46106 9.9041C9.46106 9.8041 9.46106 9.8041 9.36106 9.8041C8.86106 9.8041 8.36106 9.8041 7.86106 9.8041C7.56106 9.8041 7.36106 9.8041 7.06106 9.8041C7.06106 9.8041 7.06106 9.8041 6.96106 9.8041C6.96106 10.1041 6.96106 10.3041 6.96106 10.6041C7.86106 10.6041 8.66106 10.6041 9.46106 10.6041Z" fill="white"/>
</g>
</g>
</svg>
