<svg width="17" height="17" viewBox="0 0 17 17" fill="none" xmlns="http://www.w3.org/2000/svg">
<g id="SVG">
<g id="Group">
<g id="Group_2">
<path id="Vector" d="M8.66097 0.204102C4.16097 0.204102 0.56097 3.9041 0.66097 8.4041C0.76097 12.7041 4.26097 16.2041 8.66097 16.2041C13.061 16.2041 16.661 12.6041 16.661 8.2041C16.661 3.7041 13.061 0.204102 8.66097 0.204102ZM8.66097 15.4041C4.66097 15.4041 1.46097 12.2041 1.46097 8.2041C1.46097 4.2041 4.66097 1.0041 8.66097 1.0041C12.561 1.0041 15.861 4.2041 15.861 8.1041C15.861 12.1041 12.661 15.4041 8.66097 15.4041Z" fill="white"/>
<path id="Vector_2" d="M6.26099 12.2041C7.06099 11.4041 7.86099 10.6041 8.66099 9.8041C9.46099 10.6041 10.261 11.4041 11.061 12.2041C11.061 9.5041 11.061 6.9041 11.061 4.2041C9.46099 4.2041 7.86099 4.2041 6.26099 4.2041C6.26099 6.9041 6.26099 9.5041 6.26099 12.2041Z" fill="white"/>
</g>
</g>
</g>
</svg>
