<svg width="17" height="17" viewBox="0 0 17 17" fill="none" xmlns="http://www.w3.org/2000/svg">
<g id="SVG">
<g id="Group">
<g id="Group_2">
<path id="Vector" d="M8.66103 0.904053C4.16103 0.904053 0.561031 4.60405 0.661031 9.10405C0.761031 13.4041 4.26103 16.9041 8.66103 16.9041C13.061 16.9041 16.661 13.3041 16.661 8.90405C16.661 4.40405 13.061 0.904053 8.66103 0.904053ZM8.66103 16.1041C4.66103 16.1041 1.46103 12.9041 1.46103 8.90405C1.46103 4.90405 4.66103 1.70405 8.66103 1.70405C12.561 1.70405 15.861 4.90405 15.861 8.80405C15.861 12.8041 12.661 16.1041 8.66103 16.1041Z" fill="#58585B"/>
<path id="Vector_2" d="M6.26105 12.9041C7.06105 12.1041 7.86105 11.3041 8.66105 10.5041C9.46105 11.3041 10.261 12.1041 11.061 12.9041C11.061 10.2041 11.061 7.60405 11.061 4.90405C9.46105 4.90405 7.86105 4.90405 6.26105 4.90405C6.26105 7.60405 6.26105 10.2041 6.26105 12.9041Z" fill="#58585B"/>
</g>
</g>
</g>
</svg>
